<?xml version="1.0" encoding="UTF-8" standalone="no"?>
<svg
   xmlns:dc="http://purl.org/dc/elements/1.1/"
   xmlns:cc="http://creativecommons.org/ns#"
   xmlns:rdf="http://www.w3.org/1999/02/22-rdf-syntax-ns#"
   xmlns:svg="http://www.w3.org/2000/svg"
   xmlns="http://www.w3.org/2000/svg"
   id="svg14"
   version="1.1"
   style="overflow:visible"
   viewBox="-240 -126 480 252"
   height="1008px"
   width="1920px">
  <metadata
     id="metadata20">
    <rdf:RDF>
      <cc:Work
         rdf:about="">
        <dc:format>image/svg+xml</dc:format>
        <dc:type
           rdf:resource="http://purl.org/dc/dcmitype/StillImage" />
      </cc:Work>
    </rdf:RDF>
  </metadata>
  <defs
     id="defs18" />
  <rect
     id="rect2"
     fill-opacity="0"
     fill="rgb(0,0,0)"
     height="252"
     width="480"
     y="-126"
     x="-240" />
  <svg
     id="svg12"
     version="1.1"
     y="-250"
     x="-250"
     viewBox="-250 -250 500 500"
     height="500"
     width="500"
     style="overflow:visible">
    <g
       style="fill:#ffffff;stroke-linejoin:round"
       id="g10">
      <path
         style="fill:#dddddd;fill-opacity:1;stroke:none;stroke-linecap:butt;stroke-linejoin:round"
         id="path4"
         d="m 189.008,-12.405001 -382.913,15.3289 c -0.71557,3.83658 -1.0817,7.73223 -1.09375,11.6373 9.2e-4,35.0463 27.9112,63.4566 62.3405,63.4575 6.36105,-0.0244 12.681,-1.03966 18.7402,-3.01049 8.27029,26.228401 32.219199,44.030401 59.280599,44.065201 22.7728,-4.3e-4 43.7335,-12.6405 54.6744,-32.970801 10.9281,20.306401 31.8536,32.942501 54.5996,32.970801 27.0536,-0.0135 51.010601,-17.7878 59.306601,-43.999402 6.05436,1.94586 12.3652,2.93887 18.7142,2.9447 34.4306,9.7e-4 62.3428,-28.4099 62.3437,-63.4575 -0.0263,-9.32783 -2.07251,-18.5351 -5.99285,-26.9662 z" />
      <path
         style="fill:#ffffff;fill-opacity:1;stroke:none;stroke-linecap:butt;stroke-linejoin:round"
         id="path6"
         d="m -54.638001,-119.076 a 62.342,63.4592 0 0 0 -62.340399,63.4608 62.342,63.4592 0 0 0 0.69986,9.01836 62.342,63.4592 0 0 0 -16.3802,-2.30313 62.342,63.4592 0 0 0 -61.2467,51.8267 c 10.2583,22.2432 32.211,36.4584 56.3509,36.4913 6.36105,-0.0244 12.681,-1.03968 18.7402,-3.01052 8.27028,26.2284 32.219199,44.0304 59.280599,44.0652 22.7723,-0.002 43.7316,-12.6436 54.6712,-32.9741 10.9278,20.3086 31.855,32.9463 54.6028,32.9741 27.0536,-0.0135 51.010601,-17.7878 59.306601,-43.9994 6.05436,1.94583 12.3652,2.93962 18.7142,2.94469 30.0077,-0.0189 55.7446,-21.7959 61.2467,-51.8234 a 62.342,63.4592 0 0 0 -56.3509,-36.4945 62.342,63.4592 0 0 0 -16.3802,2.24718 62.342,63.4592 0 0 0 0.70313,-8.96242 62.342,63.4592 0 0 0 -62.343701,-63.4608 62.342,63.4592 0 0 0 -54.6712,32.9741 62.342,63.4592 0 0 0 -54.6028,-32.9741 z" />
      <path
         style="fill:none;stroke:#444444;stroke-width:10;stroke-linecap:butt;stroke-linejoin:round;stroke-opacity:1"
         id="path8"
         d="m -54.637,-119.075 a 62.342,63.4592 0 0 0 -62.3417,63.4588 62.342,63.4592 0 0 0 0.69852,9.02085 62.342,63.4592 0 0 0 -16.3782,-2.3038 62.342,63.4592 0 0 0 -62.3417,63.4588 62.342,63.4592 0 0 0 62.3417,63.4588 62.342,63.4592 0 0 0 18.7393,-3.01011 62.342,63.4592 0 0 0 59.2821,44.0661 62.342,63.4592 0 0 0 54.6718,-32.9738 62.342,63.4592 0 0 0 54.6019,32.9738 62.342,63.4592 0 0 0 59.3054,-43.999701 62.342,63.4592 0 0 0 18.716,2.94374 62.342,63.4592 0 0 0 62.3417,-63.4588 62.342,63.4592 0 0 0 -62.3417,-63.4588 62.342,63.4592 0 0 0 -16.3829,2.24691 62.342,63.4592 0 0 0 0.70318,-8.96396 62.342,63.4592 0 0 0 -62.3416,-63.458799 62.342,63.4592 0 0 0 -54.6718,32.973798 62.342,63.4592 0 0 0 -54.6019,-32.973798 z" />
    </g>
  </svg>
</svg>
