<?xml version="1.0" standalone="no"?>
<!DOCTYPE svg PUBLIC "-//W3C//DTD SVG 20010904//EN"
 "http://www.w3.org/TR/2001/REC-SVG-20010904/DTD/svg10.dtd">
<svg version="1.0" xmlns="http://www.w3.org/2000/svg"
 width="225.000000pt" height="225.000000pt" viewBox="0 0 225.000000 225.000000"
 preserveAspectRatio="xMidYMid meet">

<g transform="translate(0.000000,225.000000) scale(0.100000,-0.100000)"
fill="#000000" stroke="none">
<path d="M1091 1679 c-465 -186 -848 -344 -853 -351 -12 -20 -10 -64 5 -75 6
-6 169 -70 361 -144 192 -73 354 -138 360 -145 7 -6 72 -168 145 -360 74 -192
138 -355 144 -361 11 -15 55 -17 75 -5 17 11 692 1700 692 1732 0 35 -18 50
-54 49 -17 0 -411 -153 -875 -340z m277 -236 l-366 -366 -281 108 c-155 59
-280 110 -277 112 6 6 1270 512 1281 513 5 0 -155 -165 -357 -367z m192 -349
c-139 -346 -255 -635 -259 -642 -5 -8 -51 98 -116 268 l-108 282 363 363 c200
200 366 363 368 361 1 -2 -110 -287 -248 -632z"/>
</g>
</svg>
